<svg xmlns="http://www.w3.org/2000/svg" xmlns:xlink="http://www.w3.org/1999/xlink" width="400" height="400" viewBox="0 0 400 400">
<rect data-name="background" width="100%" height="100%" fill="#000000"/><g data-name="icon" fill="#FFFFFF" data="id:8145748" transform="translate(14.405086391783803,172.2960629029711) scale(0.554077114440509)">
  
 <path d="m61.871 22.324c-0.85938-0.85938-0.85938-2.2578 0-3.1211 0.86328-0.86328 2.2578-0.86328 3.1211 0l10.055 10.055c0.85938 0.85938 0.85938 2.2578 0 3.1211l-10.055 10.059c-0.86328 0.85938-2.2578 0.85938-3.1211 0-0.85938-0.86328-0.85938-2.2578 0-3.1211l8.4961-8.4961zm-26.867-3.1211c0.86328-0.86328 2.2578-0.86328 3.1211 0 0.85938 0.85938 0.85938 2.2578 0 3.1211l-8.4961 8.4961 8.4961 8.4961c0.85938 0.86328 0.85938 2.2578 0 3.1211-0.86328 0.85938-2.2578 0.85938-3.1211 0l-10.055-10.059c-0.85938-0.85938-0.85938-2.2578 0-3.1211zm13.117 27.125c-0.3125 1.1758-1.5234 1.875-2.6992 1.5586-1.1758-0.3125-1.875-1.5234-1.5586-2.6992l8.0078-29.883c0.3125-1.1758 1.5234-1.875 2.6992-1.5586 1.1758 0.3125 1.875 1.5234 1.5586 2.6992zm-45.625 9.0039h95v-42.609c0-1.7617-0.72266-3.3672-1.8828-4.5273-1.1641-1.1602-2.7656-1.8867-4.5312-1.8867h-82.176c-1.7617 0-3.3672 0.72266-4.5273 1.8867-1.1602 1.1602-1.8828 2.7656-1.8828 4.5273zm95 4.4141h-95v2.1445c0 1.7617 0.72266 3.3672 1.8828 4.5273 1.1602 1.1602 2.7656 1.8828 4.5273 1.8828h82.172c1.7617 0 3.3672-0.72266 4.5312-1.8828 1.1602-1.1602 1.8828-2.7656 1.8828-4.5273v-2.1445zm-32.375 27.766h-30.254c-2.3047 0-4.4023 0.94531-5.9219 2.4648-1.0156 1.0156-1.7773 2.293-2.168 3.7148h46.438c-0.39062-1.4258-1.1484-2.7031-2.1641-3.7188-1.5195-1.5156-3.6211-2.4609-5.9297-2.4609zm-9.8203-14.793h-10.613l-3.8164 10.379h18.246z"/>

  </g><g data-name="business_name" fill="#FFFFFF" data="id:165" transform="translate(93.4253915439576,179.28647901531744) scale(0.7972872251733657)"><path d="M0,11.96l17.2,0c7.48,0.32,13.4,6.48,13.4,14c0,7.56-5.92,13.72-13.4,14.04l-17.2,0l0-21.8l17.2,0c4.04,0.32,7.24,3.64,7.24,7.8c0,4-3.08,7.44-7.08,7.76l-11.12,0l0-9.84l3.12,0l0,6.72l7.84-0.04c2.36-0.2,4.16-2.24,4.16-4.6c0-2.04-1.28-3.72-3.08-4.4c-0.68-0.28-1.08-0.28-2.16-0.28l-13,0l0,15.56l14.08,0c5.72-0.32,10.28-5.04,10.28-10.92c0-5.8-4.56-10.56-10.28-10.88l-17.2,0l0-3.12z M54.36,30.64l1.8-3.12l5.44,9.36l3.6,0c-0.8-1.28-8.4-14.28-9.04-15.56l-7.84,13.6l-2.92,5.08l-10.8,0c0.6-1,4.64-8.04,8.52-14.8c2.28-3.96,4.8-8.4,7.64-13.24l3.6,0l-7.44,12.88l-6.92,12.04l3.6,0c4.92-8.68,8-13.8,12.56-21.8c0.28,0.48,14.36,24.88,14.44,24.92l-10.8,0z M101.4,11.96l10.8,0c-0.6,1-4.64,8.04-8.52,14.8c-2.28,3.96-4.8,8.4-7.64,13.24l-3.6,0c0.32-0.52,3.88-6.8,7.4-12.88c2.04-3.56,4.36-7.6,6.96-12.04l-3.6,0c-5.04,8.64-7.96,13.8-12.56,21.8c-0.28-0.48-14.48-24.88-14.44-24.92l10.8,0l5.44,9.36l-1.8,3.12l-5.44-9.36l-3.6,0c0.8,1.28,8.28,14.32,9.04,15.56l7.84-13.6z M125.56,40l-9.36,0l0-28.04l9.36,0l0,21.8l-3.12,0l0-18.68l-3.12,0l0,21.8l6.24,0l0,3.12z M131.16,11.96l17.2,0c7.48,0.32,13.4,6.48,13.4,14c0,7.56-5.92,13.72-13.4,14.04l-17.2,0l0-21.8l17.2,0c4.04,0.32,7.24,3.64,7.24,7.8c0,4-3.08,7.44-7.08,7.76l-11.12,0l0-9.84l3.12,0l0,6.72l7.84-0.04c2.36-0.2,4.16-2.24,4.16-4.6c0-2.04-1.28-3.72-3.08-4.4c-0.68-0.28-1.08-0.28-2.16-0.28l-13,0l0,15.56l14.08,0c5.72-0.32,10.28-5.04,10.28-10.92c0-5.8-4.56-10.56-10.28-10.88l-17.2,0l0-3.12z  M205.52,30.64l1.8-3.12l5.44,9.36l3.6,0c-0.8-1.28-8.4-14.28-9.04-15.56l-7.84,13.6l-2.92,5.08l-10.8,0c0.6-1,4.64-8.04,8.52-14.8c2.28-3.96,4.8-8.4,7.64-13.24l3.6,0l-7.44,12.88l-6.92,12.04l3.6,0c4.92-8.68,8-13.8,12.56-21.8c0.28,0.48,14.36,24.88,14.44,24.92l-10.8,0z M227.36,11.96l17.2,0c7.48,0.32,13.4,6.48,13.4,14c0,7.56-5.92,13.72-13.4,14.04l-17.2,0l0-21.8l17.2,0c4.04,0.32,7.24,3.64,7.24,7.8c0,4-3.08,7.44-7.08,7.76l-11.12,0l0-9.84l3.12,0l0,6.72l7.84-0.04c2.36-0.2,4.16-2.24,4.16-4.6c0-2.04-1.28-3.72-3.08-4.4c-0.68-0.28-1.08-0.28-2.16-0.28l-13,0l0,15.56l14.08,0c5.72-0.32,10.28-5.04,10.28-10.92c0-5.8-4.56-10.56-10.28-10.88l-17.2,0l0-3.12z M292.56,11.96l0,9.36l-21.24,0l0,3.12l15.76,0l0,3.12l-18.88,0l0-9.36l21.24,0l0-3.12l-24.36,0l0,21.8l24.36,0l0-3.12l-21.24,0l0-3.12l24.36,0l0,9.36l-30.6,0l0-28.04l30.6,0z M298.16,21.32l0-9.36l30.6,0l0,9.36l-7.52,0l0-3.12l4.4,0l0-3.12l-24.36,0l0,3.12l10.64,0l-0.04,18.68l3.12,0l0-18.68l3.12,0l0,21.8l-9.36,0l0-18.68l-10.6,0z M364.72,11.96l0,12.88c0,8.32-6.8,15.16-15.2,15.16c-8.24,0-14.84-6.48-15.16-14.64l0-13.4l9.16,0l0,12.88c0,3.32,2.68,6,6,6s5.88-2.6,6-5.84l0-13.04l3.04,0l0,12.88c0,4.96-4.04,9.04-9.04,9.04c-4.92,0-9-4-9-8.96l-0.04,0l0-9.88l-3,0l0,10c0.12,6.56,5.48,11.84,12.04,11.84c6.68,0,12.04-5.4,12.04-12.04l0-12.88l3.16,0z "/></g></svg>